<svg width="25" height="25" viewBox="0 0 25 25" fill="none" xmlns="http://www.w3.org/2000/svg">
<path fill-rule="evenodd" clip-rule="evenodd" d="M5.44995 11.0832C5.8187 11.5248 6.47495 11.5853 6.91661 11.2165L11.4583 7.43213V19.7915C11.4583 20.3665 11.9249 20.8332 12.4999 20.8332C13.0749 20.8332 13.5416 20.3665 13.5416 19.7915V7.43213L18.0833 11.2165C18.526 11.5853 19.1822 11.5248 19.5499 11.0832C19.9187 10.6415 19.8593 9.98421 19.4166 9.6165L13.1666 4.40817C13.1177 4.3665 13.0593 4.34671 13.0052 4.31546C12.9624 4.29046 12.9249 4.2613 12.8781 4.24255C12.7562 4.19463 12.6291 4.1665 12.4999 4.1665C12.3708 4.1665 12.2437 4.19463 12.1218 4.24255C12.0749 4.2613 12.0374 4.29046 11.9947 4.31546C11.9406 4.34671 11.8822 4.3665 11.8333 4.40817L5.58328 9.6165C5.14161 9.98421 5.0812 10.6415 5.44995 11.0832Z" fill="white"/>
<mask id="mask0" style="mask-type:alpha" maskUnits="userSpaceOnUse" x="5" y="4" width="15" height="17">
<path fill-rule="evenodd" clip-rule="evenodd" d="M5.44995 11.0832C5.8187 11.5248 6.47495 11.5853 6.91661 11.2165L11.4583 7.43213V19.7915C11.4583 20.3665 11.9249 20.8332 12.4999 20.8332C13.0749 20.8332 13.5416 20.3665 13.5416 19.7915V7.43213L18.0833 11.2165C18.526 11.5853 19.1822 11.5248 19.5499 11.0832C19.9187 10.6415 19.8593 9.98421 19.4166 9.6165L13.1666 4.40817C13.1177 4.3665 13.0593 4.34671 13.0052 4.31546C12.9624 4.29046 12.9249 4.2613 12.8781 4.24255C12.7562 4.19463 12.6291 4.1665 12.4999 4.1665C12.3708 4.1665 12.2437 4.19463 12.1218 4.24255C12.0749 4.2613 12.0374 4.29046 11.9947 4.31546C11.9406 4.34671 11.8822 4.3665 11.8333 4.40817L5.58328 9.6165C5.14161 9.98421 5.0812 10.6415 5.44995 11.0832Z" fill="white"/>
</mask>
<g mask="url(#mask0)">
<rect width="25" height="25" fill="white"/>
</g>
</svg>
