<svg width="50" height="50" viewBox="0 0 50 50" fill="none" xmlns="http://www.w3.org/2000/svg">
<g id="Icon/Outline/arrow-up">
<path id="Mask" fill-rule="evenodd" clip-rule="evenodd" d="M10.8998 22.1668C11.6373 23.0502 12.9498 23.171 13.8331 22.4335L22.9165 14.8647V39.5835C22.9165 40.7335 23.8498 41.6668 24.9998 41.6668C26.1498 41.6668 27.0831 40.7335 27.0831 39.5835V14.8647L36.1665 22.4335C37.0519 23.171 38.3644 23.0502 39.0998 22.1668C39.8373 21.2835 39.7186 19.9689 38.8331 19.2335L26.3331 8.81683C26.2352 8.7335 26.1186 8.69391 26.0102 8.63141C25.9248 8.58141 25.8498 8.52308 25.7561 8.48558C25.5123 8.38975 25.2581 8.3335 24.9998 8.3335C24.7415 8.3335 24.4873 8.38975 24.2436 8.48558C24.1498 8.52308 24.0748 8.58141 23.9894 8.63141C23.8811 8.69391 23.7644 8.7335 23.6665 8.81683L11.1665 19.2335C10.2831 19.9689 10.1623 21.2835 10.8998 22.1668Z" fill="#01384D"/>
<mask id="mask0" style="mask-type:alpha" maskUnits="userSpaceOnUse" x="10" y="8" width="30" height="34">
<path id="Mask_2" fill-rule="evenodd" clip-rule="evenodd" d="M10.8998 22.1668C11.6373 23.0502 12.9498 23.171 13.8331 22.4335L22.9165 14.8647V39.5835C22.9165 40.7335 23.8498 41.6668 24.9998 41.6668C26.1498 41.6668 27.0831 40.7335 27.0831 39.5835V14.8647L36.1665 22.4335C37.0519 23.171 38.3644 23.0502 39.0998 22.1668C39.8373 21.2835 39.7186 19.9689 38.8331 19.2335L26.3331 8.81683C26.2352 8.7335 26.1186 8.69391 26.0102 8.63141C25.9248 8.58141 25.8498 8.52308 25.7561 8.48558C25.5123 8.38975 25.2581 8.3335 24.9998 8.3335C24.7415 8.3335 24.4873 8.38975 24.2436 8.48558C24.1498 8.52308 24.0748 8.58141 23.9894 8.63141C23.8811 8.69391 23.7644 8.7335 23.6665 8.81683L11.1665 19.2335C10.2831 19.9689 10.1623 21.2835 10.8998 22.1668Z" fill="white"/>
</mask>
<g mask="url(#mask0)">
<g id="&#240;&#159;&#142;&#168; Color">
<rect id="Base" width="50" height="50" fill="#01384D"/>
</g>
</g>
</g>
</svg>
