<svg width="24" height="24" viewBox="0 0 24 24" fill="none" xmlns="http://www.w3.org/2000/svg">
<path fill-rule="evenodd" clip-rule="evenodd" d="M2.99027 4.87254C3.30659 4.34878 5.04944 2.44376 6.29316 2.50127C6.66494 2.53208 6.99358 2.75699 7.2606 3.01784C7.87373 3.61656 9.6289 5.88101 9.72853 6.35753C9.9709 7.52621 8.57827 8.1999 9.00448 9.37783C10.0911 12.0366 11.9633 13.9088 14.6233 14.9943C15.8002 15.4205 16.474 14.0279 17.6427 14.2713C18.1182 14.3709 20.3838 16.126 20.9826 16.7391C21.2424 17.0051 21.4683 17.3347 21.4992 17.7065C21.5454 19.0159 19.5222 20.7833 19.1278 21.0092C18.1973 21.6747 16.9834 21.6634 15.5034 20.9753C11.3738 19.2572 4.7742 12.7822 3.02416 8.49669C2.35455 7.02505 2.30833 5.80297 2.99027 4.87254Z" fill="#01384D"/>
</svg>
