<svg width="16" height="18" viewBox="0 0 16 18" fill="none" xmlns="http://www.w3.org/2000/svg">
<path fill-rule="evenodd" clip-rule="evenodd" d="M0.916687 7.59821C0.916687 3.76499 4.11992 0.666748 7.99456 0.666748C11.8801 0.666748 15.0834 3.76499 15.0834 7.59821C15.0834 9.52982 14.3809 11.3231 13.2246 12.8431C11.949 14.5197 10.3768 15.9805 8.60714 17.1271C8.20211 17.3921 7.83658 17.4121 7.39206 17.1271C5.6123 15.9805 4.04009 14.5197 2.77544 12.8431C1.61834 11.3231 0.916687 9.52982 0.916687 7.59821ZM5.66188 7.81396C5.66188 9.09808 6.70974 10.1081 7.99456 10.1081C9.28022 10.1081 10.3382 9.09808 10.3382 7.81396C10.3382 6.53983 9.28022 5.48069 7.99456 5.48069C6.70974 5.48069 5.66188 6.53983 5.66188 7.81396Z" fill="#01384D"/>
</svg>
