<svg width="20" height="20" viewBox="0 0 20 20" fill="none" xmlns="http://www.w3.org/2000/svg">
<path d="M5.83334 15C4.91667 15 4.175 15.75 4.175 16.6666C4.175 17.5833 4.91667 18.3333 5.83334 18.3333C6.75 18.3333 7.5 17.5833 7.5 16.6666C7.5 15.75 6.75 15 5.83334 15ZM0.833336 2.49996C0.833336 2.95829 1.20834 3.33329 1.66667 3.33329H2.5L5.5 9.65829L4.375 11.6916C3.76667 12.8083 4.56667 14.1666 5.83334 14.1666H15C15.4583 14.1666 15.8333 13.7916 15.8333 13.3333C15.8333 12.875 15.4583 12.5 15 12.5H5.83334L6.75 10.8333H12.9583C13.5833 10.8333 14.1333 10.4916 14.4167 9.97496L17.4 4.56663C17.7083 4.01663 17.3083 3.33329 16.675 3.33329H4.34167L3.78334 2.14163C3.65 1.84996 3.35 1.66663 3.03334 1.66663H1.66667C1.20834 1.66663 0.833336 2.04163 0.833336 2.49996ZM14.1667 15C13.25 15 12.5083 15.75 12.5083 16.6666C12.5083 17.5833 13.25 18.3333 14.1667 18.3333C15.0833 18.3333 15.8333 17.5833 15.8333 16.6666C15.8333 15.75 15.0833 15 14.1667 15Z" fill="#01384D"/>
</svg>
