<svg width="36" height="36" viewBox="0 0 36 36" fill="none" xmlns="http://www.w3.org/2000/svg">
<path d="M23.25 21H22.065L21.645 20.595C23.445 18.495 24.375 15.63 23.865 12.585C23.16 8.41496 19.68 5.08496 15.48 4.57496C9.135 3.79496 3.81 9.13496 4.575 15.48C5.085 19.68 8.415 23.16 12.585 23.865C15.63 24.375 18.495 23.445 20.595 21.645L21 22.065V23.25L27.39 29.625C28.005 30.24 28.995 30.24 29.61 29.625L29.625 29.61C30.24 28.995 30.24 28.005 29.625 27.39L23.25 21ZM14.25 21C10.515 21 7.5 17.985 7.5 14.25C7.5 10.515 10.515 7.49996 14.25 7.49996C17.985 7.49996 21 10.515 21 14.25C21 17.985 17.985 21 14.25 21ZM14.25 10.5C13.83 10.5 13.5 10.83 13.5 11.25V13.5H11.25C10.83 13.5 10.5 13.83 10.5 14.25C10.5 14.67 10.83 15 11.25 15H13.5V17.25C13.5 17.67 13.83 18 14.25 18C14.67 18 15 17.67 15 17.25V15H17.25C17.67 15 18 14.67 18 14.25C18 13.83 17.67 13.5 17.25 13.5H15V11.25C15 10.83 14.67 10.5 14.25 10.5Z" fill="#01384D"/>
</svg>
